<svg width="29" height="29" viewBox="0 0 29 29" fill="none" xmlns="http://www.w3.org/2000/svg">
<path d="M3.39945 18.6889L1.8689 25.2945C1.8161 25.5359 1.81791 25.7861 1.8742 26.0268C1.93048 26.2675 2.03982 26.4926 2.19423 26.6856C2.34864 26.8786 2.54422 27.0347 2.76667 27.1424C2.98913 27.2502 3.23284 27.3068 3.48001 27.3083C3.59518 27.32 3.71123 27.32 3.8264 27.3083L10.4722 25.7778L23.2322 13.0661L16.1111 5.96112L3.39945 18.6889Z" fill="black"/>
<path d="M27.2439 6.70221L22.4911 1.94944C22.1786 1.63855 21.7558 1.46402 21.315 1.46402C20.8742 1.46402 20.4514 1.63855 20.1389 1.94944L17.4967 4.59166L24.6097 11.7047L27.252 9.06249C27.4066 8.90708 27.529 8.72271 27.6123 8.51992C27.6956 8.31713 27.7381 8.09991 27.7374 7.88068C27.7366 7.66146 27.6926 7.44453 27.608 7.24231C27.5233 7.0401 27.3996 6.85656 27.2439 6.70221Z" fill="black"/>
</svg>
