<svg width="32" height="33" viewBox="0 0 32 33" fill="none" xmlns="http://www.w3.org/2000/svg">
<g filter="url(#filter0_d_2_25)">
<path d="M19.335 15V18.333H22.667V21.665H26V25H22.667V21.667H19.335V25H16V21.667H19.333V18.334H16V15H19.334H19.335ZM11.5 15C12.163 15 12.7989 15.2634 13.2678 15.7322C13.7366 16.2011 14 16.837 14 17.5V22.5C14 23.163 13.7366 23.7989 13.2678 24.2678C12.7989 24.7366 12.163 25 11.5 25H6.5C5.83696 25 5.20107 24.7366 4.73223 24.2678C4.26339 23.7989 4 23.163 4 22.5V17.5C4 16.837 4.26339 16.2011 4.73223 15.7322C5.20107 15.2634 5.83696 15 6.5 15H11.5ZM11.5 17H6.5C6.36739 17 6.24021 17.0527 6.14645 17.1464C6.05268 17.2402 6 17.3674 6 17.5V22.5C6 22.6326 6.05268 22.7598 6.14645 22.8536C6.24021 22.9473 6.36739 23 6.5 23H11.5C11.6326 23 11.7598 22.9473 11.8536 22.8536C11.9473 22.7598 12 22.6326 12 22.5V17.5C12 17.3674 11.9473 17.2402 11.8536 17.1464C11.7598 17.0527 11.6326 17 11.5 17ZM10.75 18.25V21.75H7.25V18.25H10.75ZM26 15V18.333H22.667V15H26ZM11.5 3C12.163 3 12.7989 3.26339 13.2678 3.73223C13.7366 4.20107 14 4.83696 14 5.5V10.5C14 11.163 13.7366 11.7989 13.2678 12.2678C12.7989 12.7366 12.163 13 11.5 13H6.5C5.83696 13 5.20107 12.7366 4.73223 12.2678C4.26339 11.7989 4 11.163 4 10.5V5.5C4 4.83696 4.26339 4.20107 4.73223 3.73223C5.20107 3.26339 5.83696 3 6.5 3H11.5ZM23.5 3C24.163 3 24.7989 3.26339 25.2678 3.73223C25.7366 4.20107 26 4.83696 26 5.5V10.5C26 11.163 25.7366 11.7989 25.2678 12.2678C24.7989 12.7366 24.163 13 23.5 13H18.5C17.837 13 17.2011 12.7366 16.7322 12.2678C16.2634 11.7989 16 11.163 16 10.5V5.5C16 4.83696 16.2634 4.20107 16.7322 3.73223C17.2011 3.26339 17.837 3 18.5 3H23.5ZM11.5 5H6.5C6.36739 5 6.24021 5.05268 6.14645 5.14645C6.05268 5.24021 6 5.36739 6 5.5V10.5C6 10.6326 6.05268 10.7598 6.14645 10.8536C6.24021 10.9473 6.36739 11 6.5 11H11.5C11.6326 11 11.7598 10.9473 11.8536 10.8536C11.9473 10.7598 12 10.6326 12 10.5V5.5C12 5.36739 11.9473 5.24021 11.8536 5.14645C11.7598 5.05268 11.6326 5 11.5 5ZM23.5 5H18.5C18.3674 5 18.2402 5.05268 18.1464 5.14645C18.0527 5.24021 18 5.36739 18 5.5V10.5C18 10.6326 18.0527 10.7598 18.1464 10.8536C18.2402 10.9473 18.3674 11 18.5 11H23.5C23.6326 11 23.7598 10.9473 23.8536 10.8536C23.9473 10.7598 24 10.6326 24 10.5V5.5C24 5.36739 23.9473 5.24021 23.8536 5.14645C23.7598 5.05268 23.6326 5 23.5 5ZM22.75 6.25V9.75H19.25V6.25H22.75ZM10.747 6.252V9.747H7.253V6.252H10.747Z" fill="#100F0F"/>
</g>
<defs>
<filter id="filter0_d_2_25" x="0" y="0" width="36" height="36" filterUnits="userSpaceOnUse" color-interpolation-filters="sRGB">
<feFlood flood-opacity="0" result="BackgroundImageFix"/>
<feColorMatrix in="SourceAlpha" type="matrix" values="0 0 0 0 0 0 0 0 0 0 0 0 0 0 0 0 0 0 127 0" result="hardAlpha"/>
<feOffset dy="4"/>
<feGaussianBlur stdDeviation="2"/>
<feComposite in2="hardAlpha" operator="out"/>
<feColorMatrix type="matrix" values="0 0 0 0 0 0 0 0 0 0 0 0 0 0 0 0 0 0 0.25 0"/>
<feBlend mode="normal" in2="BackgroundImageFix" result="effect1_dropShadow_2_25"/>
<feBlend mode="normal" in="SourceGraphic" in2="effect1_dropShadow_2_25" result="shape"/>
</filter>
</defs>
</svg>
